<?xml version="1.0" encoding="utf-8"?>
<!-- Generator: Adobe Illustrator 17.0.0, SVG Export Plug-In . SVG Version: 6.00 Build 0)  -->
<!DOCTYPE svg PUBLIC "-//W3C//DTD SVG 1.1//EN" "http://www.w3.org/Graphics/SVG/1.1/DTD/svg11.dtd">
<svg version="1.1" xmlns="http://www.w3.org/2000/svg" xmlns:xlink="http://www.w3.org/1999/xlink" x="0px" y="0px"
	 width="125.045px" height="29.505px" viewBox="0 0 125.045 29.505" enable-background="new 0 0 125.045 29.505"
	 xml:space="preserve">
<g id="logoViewmed">
	<g>
		<g>
			<defs>
				<path id="SVGID_25_" d="M17.212,17.856c0.029-0.025,0.054-0.053,0.083-0.08C17.267,17.803,17.241,17.83,17.212,17.856"/>
			</defs>
			<clipPath id="SVGID_2_">
				<use xlink:href="#SVGID_25_"  overflow="visible"/>
			</clipPath>
			
				<radialGradient id="SVGID_4_" cx="-1975.676" cy="-8756.1709" r="0.1694" gradientTransform="matrix(0.3391 0.2395 -0.2395 0.3391 -1409.891 3460.2156)" gradientUnits="userSpaceOnUse">
				<stop  offset="0" style="stop-color:#B9C500"/>
				<stop  offset="0.0582" style="stop-color:#A6B402"/>
				<stop  offset="0.182" style="stop-color:#829406"/>
				<stop  offset="0.3132" style="stop-color:#657A09"/>
				<stop  offset="0.4521" style="stop-color:#4E660C"/>
				<stop  offset="0.6021" style="stop-color:#3E580E"/>
				<stop  offset="0.7712" style="stop-color:#35500F"/>
				<stop  offset="1" style="stop-color:#324D0F"/>
			</radialGradient>
			<polygon clip-path="url(#SVGID_2_)" fill="url(#SVGID_4_)" points="17.175,17.829 17.268,17.895 17.333,17.802 17.24,17.736 			
				"/>
		</g>
		<g>
			<path fill="#BAC600" d="M1.75,18.126c-0.278-1.08-0.425-2.21-0.425-3.377c0-7.415,6.008-13.427,13.425-13.427
				c4.718,0,8.871,2.435,11.262,6.117c0.111,0.002,0.218,0.005,0.325,0.009c0.474,0.022,0.925,0.098,1.354,0.218
				c-0.663-1.214-1.507-2.341-2.514-3.348C22.39,1.534,18.688,0,14.75,0C10.811,0,7.104,1.534,4.318,4.32
				C1.536,7.106,0,10.811,0,14.75c0,0.311,0.009,0.618,0.027,0.923C0.294,16.74,0.9,17.603,1.75,18.126"/>
			<path fill="#BAC600" d="M27.738,11.346c0.285,1.087,0.438,2.228,0.438,3.404c0,2.086-0.478,4.06-1.325,5.821
				c-0.095,0.196-0.195,0.389-0.298,0.58c-0.256,0.475-0.543,0.934-0.856,1.373c-0.124,0.174-0.251,0.349-0.387,0.518
				c-0.198,0.253-0.407,0.5-0.623,0.739c-0.505,0.556-1.058,1.069-1.65,1.534c-0.082,0.066-0.167,0.131-0.254,0.196
				c-2.241,1.676-5.02,2.668-8.033,2.668c-3.013,0-5.794-0.992-8.035-2.668c-0.087-0.065-0.171-0.131-0.254-0.196
				c-0.593-0.465-1.143-0.978-1.65-1.534c-0.218-0.24-0.423-0.487-0.623-0.739c-0.135-0.169-0.262-0.344-0.387-0.518
				c-0.113-0.158-0.22-0.318-0.325-0.482c-0.015-0.002-1.096-0.078-1.714-0.276c0.674,1.247,1.528,2.393,2.557,3.422
				c2.786,2.784,6.494,4.318,10.432,4.318c3.938,0,7.64-1.534,10.428-4.322c2.786-2.788,4.322-6.492,4.322-10.434
				c0-0.311-0.012-0.622-0.031-0.931C29.209,12.774,28.605,11.882,27.738,11.346"/>
		</g>
		<g>
			<defs>
				<path id="SVGID_28_" d="M1.325,14.75c0,1.167,0.147,2.297,0.425,3.377c0.651,0.4,1.447,0.599,2.343,0.534
					c0.829-0.058,1.526-0.4,2.055-0.834c0.792-0.645,1.252-1.514,1.432-2.802c0.024-0.006,3.34-0.059,3.311-0.059h0.029
					c0.22,2.032,1.539,3.519,3.46,3.666c1.485,0.116,2.661-0.516,3.34-1.326c0.491-0.589,0.737-1.333,0.891-2.288
					c0.027-0.006,3.28-0.051,3.251-0.051h0.029c0.176,0.846-0.352,2.368-0.654,2.981c-1.065,2.162-3.013,3.858-5.992,4.071
					c-0.192,0.013-0.716,0.044-0.818,0.036c-0.823,0-1.234-0.142-1.601-0.267c-0.097-0.031-0.187-0.06-0.266-0.085
					c-1.381-0.442-2.512-1.28-3.313-2.154c-1.227,1.307-2.82,2.36-5.156,2.529H4.065l-0.59-0.013
					c2.393,3.691,6.546,6.126,11.275,6.126c7.415,0,13.427-6.017,13.427-13.434c0-1.176-0.153-2.323-0.438-3.41
					c-0.627-0.387-1.396-0.604-2.268-0.54c-2.072,0.149-3.262,1.621-3.546,3.652h-3.34c-0.264-2.032-1.558-3.514-3.638-3.652
					c-2.237-0.151-3.835,1.516-4.055,3.675l-3.37-0.056c0.008-1.879,0.856-3.524,1.97-4.739c1.071-1.17,2.705-2.115,4.649-2.236
					c2.901-0.18,4.68,1.031,6.083,2.507c0.654-0.614,1.31-1.23,2.137-1.673c0.006-0.006,0.011-0.009,0.022-0.013
					c0.583-0.32,1.581-0.799,3.151-0.827c0.158-0.004,0.32-0.006,0.478-0.002C23.62,3.758,19.467,1.323,14.75,1.323
					C7.333,1.323,1.325,7.335,1.325,14.75"/>
			</defs>
			<radialGradient id="SVGID_6_" cx="16.6121" cy="16.8716" r="13.5119" gradientUnits="userSpaceOnUse">
				<stop  offset="0" style="stop-color:#B9C500"/>
				<stop  offset="0.0582" style="stop-color:#A6B402"/>
				<stop  offset="0.182" style="stop-color:#829406"/>
				<stop  offset="0.3132" style="stop-color:#657A09"/>
				<stop  offset="0.4521" style="stop-color:#4E660C"/>
				<stop  offset="0.6021" style="stop-color:#3E580E"/>
				<stop  offset="0.7712" style="stop-color:#35500F"/>
				<stop  offset="1" style="stop-color:#324D0F"/>
			</radialGradient>
			<use xlink:href="#SVGID_28_"  overflow="visible" fill="url(#SVGID_6_)"/>
			<clipPath id="SVGID_7_">
				<use xlink:href="#SVGID_28_"  overflow="visible"/>
			</clipPath>
		</g>
		<g>
			<path fill="#464545" d="M34.292,17.136c-0.726-1.841-1.518-3.706-2.376-5.594c0.203,0.031,0.398,0.059,0.585,0.082
				c0.187,0.023,0.382,0.035,0.585,0.035c0.172,0,0.343-0.012,0.515-0.035c0.172-0.023,0.343-0.05,0.515-0.082
				c0.483,1.545,1.01,3.062,1.58,4.552c0.569,1.49,1.205,3.016,1.908,4.576c0.312-0.64,0.62-1.33,0.925-2.071
				c0.304-0.741,0.608-1.51,0.913-2.305c0.304-0.796,0.6-1.595,0.889-2.399c0.289-0.803,0.573-1.588,0.854-2.352
				c0.281,0.078,0.523,0.117,0.726,0.117c0.203,0,0.445-0.039,0.726-0.117c-0.843,1.888-1.67,3.753-2.481,5.594
				c-0.812,1.841-1.553,3.683-2.223,5.524c-0.234-0.031-0.476-0.047-0.726-0.047c-0.25,0-0.5,0.015-0.749,0.047
				C35.739,20.819,35.017,18.978,34.292,17.136z"/>
			<path fill="#464545" d="M45.538,6.627c0.234-0.234,0.515-0.351,0.843-0.351c0.328,0,0.609,0.117,0.843,0.351
				c0.234,0.234,0.351,0.515,0.351,0.843c0,0.328-0.117,0.608-0.351,0.843c-0.234,0.234-0.515,0.351-0.843,0.351
				c-0.328,0-0.609-0.117-0.843-0.351c-0.234-0.234-0.351-0.515-0.351-0.843C45.187,7.142,45.304,6.861,45.538,6.627z
				 M45.479,13.707c-0.023-0.772-0.074-1.494-0.152-2.165c0.437,0.078,0.788,0.117,1.053,0.117c0.265,0,0.616-0.039,1.053-0.117
				c-0.078,0.671-0.129,1.393-0.152,2.165c-0.023,0.772-0.035,1.51-0.035,2.212v2.434c0,0.702,0.012,1.439,0.035,2.212
				c0.023,0.772,0.074,1.471,0.152,2.095c-0.359-0.031-0.71-0.047-1.053-0.047c-0.343,0-0.694,0.015-1.053,0.047
				c0.078-0.624,0.129-1.322,0.152-2.095c0.023-0.772,0.035-1.51,0.035-2.212v-2.434C45.514,15.217,45.503,14.48,45.479,13.707z"/>
			<path fill="#464545" d="M51.822,12.947c0.913-1.092,2.243-1.638,3.991-1.638c0.827,0,1.541,0.129,2.142,0.386
				c0.6,0.257,1.104,0.601,1.51,1.03c0.406,0.429,0.706,0.933,0.901,1.51c0.195,0.577,0.293,1.194,0.293,1.849
				c0,0.156-0.004,0.308-0.012,0.456c-0.008,0.148-0.02,0.301-0.035,0.456c-0.843-0.015-1.678-0.031-2.504-0.047
				c-0.827-0.015-1.662-0.023-2.504-0.023c-0.515,0-1.026,0.008-1.533,0.023c-0.507,0.016-1.018,0.032-1.533,0.047
				c-0.016,0.078-0.023,0.195-0.023,0.351v0.304c0,0.608,0.09,1.178,0.269,1.708c0.179,0.531,0.441,0.987,0.784,1.369
				c0.343,0.383,0.764,0.687,1.264,0.913c0.499,0.226,1.077,0.339,1.732,0.339c0.312,0,0.632-0.043,0.96-0.129
				c0.328-0.086,0.647-0.203,0.96-0.351c0.312-0.148,0.604-0.324,0.878-0.527c0.273-0.203,0.511-0.421,0.714-0.655l0.117,0.07
				l-0.14,1.147c-0.468,0.374-1.05,0.694-1.744,0.96c-0.694,0.265-1.416,0.398-2.165,0.398c-0.843,0-1.611-0.129-2.305-0.386
				c-0.694-0.257-1.295-0.632-1.802-1.123c-0.507-0.492-0.897-1.073-1.17-1.744c-0.273-0.671-0.41-1.396-0.41-2.177
				C50.453,15.545,50.909,14.039,51.822,12.947z M54.397,12.455c-0.398,0.266-0.726,0.597-0.983,0.995
				c-0.257,0.398-0.453,0.835-0.585,1.311c-0.133,0.476-0.215,0.925-0.246,1.346c0.484,0.016,0.987,0.031,1.51,0.047
				c0.523,0.016,1.033,0.023,1.533,0.023c0.515,0,1.038-0.008,1.568-0.023c0.53-0.015,1.045-0.031,1.545-0.047
				c0-0.421-0.035-0.866-0.105-1.334c-0.07-0.468-0.211-0.905-0.421-1.311c-0.211-0.406-0.503-0.741-0.878-1.006
				c-0.374-0.265-0.866-0.398-1.475-0.398C55.282,12.057,54.795,12.19,54.397,12.455z"/>
			<path fill="#464545" d="M65.104,20.46c-0.312-0.889-0.652-1.837-1.018-2.844c-0.367-1.006-0.749-2.036-1.147-3.089
				c-0.398-1.053-0.792-2.048-1.182-2.984c0.187,0.031,0.37,0.059,0.55,0.082c0.179,0.023,0.363,0.035,0.55,0.035
				c0.171,0,0.343-0.012,0.515-0.035c0.172-0.023,0.359-0.05,0.562-0.082c0.406,1.467,0.854,2.937,1.346,4.412
				c0.492,1.475,1.042,2.992,1.65,4.552c0.187-0.437,0.413-1.014,0.679-1.732c0.265-0.718,0.538-1.49,0.819-2.317
				c0.281-0.827,0.562-1.669,0.843-2.528c0.281-0.858,0.53-1.654,0.749-2.387c0.281,0.078,0.515,0.117,0.702,0.117
				c0.125,0,0.234-0.012,0.328-0.035c0.094-0.023,0.203-0.05,0.328-0.082c0.39,1.498,0.843,2.976,1.358,4.435
				c0.515,1.459,1.053,2.969,1.615,4.529c0.203-0.499,0.441-1.112,0.714-1.837c0.273-0.726,0.558-1.49,0.854-2.294
				c0.296-0.803,0.597-1.627,0.901-2.469c0.304-0.843,0.589-1.63,0.854-2.364c0.312,0.078,0.562,0.117,0.749,0.117
				c0.203,0,0.437-0.039,0.702-0.117c-0.889,1.888-1.72,3.753-2.493,5.594c-0.772,1.841-1.494,3.683-2.165,5.524
				c-0.172-0.031-0.374-0.047-0.609-0.047c-0.109,0-0.219,0-0.328,0c-0.109,0-0.203,0.015-0.281,0.047
				c-0.406-1.389-0.851-2.785-1.334-4.19c-0.484-1.404-1.038-2.879-1.662-4.424c-0.187,0.468-0.414,1.05-0.679,1.744
				c-0.266,0.694-0.538,1.439-0.819,2.235c-0.281,0.796-0.562,1.603-0.843,2.422c-0.281,0.819-0.531,1.556-0.749,2.212
				c-0.187-0.031-0.406-0.047-0.655-0.047c-0.25,0-0.468,0.015-0.655,0.047C65.666,22.083,65.416,21.349,65.104,20.46z"/>
			<path fill="#6D8010" d="M82.729,11.554c0.234,0.023,0.523,0.035,0.866,0.035c0.343,0,0.632-0.012,0.866-0.035
				c0.234-0.023,0.468-0.051,0.702-0.082c-0.094,0.297-0.172,0.589-0.234,0.878c-0.063,0.289-0.125,0.581-0.187,0.878
				c0.141-0.172,0.324-0.37,0.55-0.597c0.226-0.226,0.495-0.441,0.807-0.644c0.312-0.203,0.679-0.378,1.1-0.527
				c0.421-0.148,0.905-0.222,1.451-0.222c0.749,0,1.361,0.184,1.837,0.55c0.476,0.367,0.792,0.909,0.948,1.627
				c0.515-0.624,1.115-1.147,1.802-1.568c0.686-0.421,1.428-0.632,2.224-0.632c0.328,0,0.667,0.051,1.018,0.152
				c0.351,0.102,0.671,0.257,0.96,0.468c0.288,0.211,0.523,0.484,0.702,0.819c0.179,0.336,0.269,0.737,0.269,1.205
				c0,0.203-0.008,0.398-0.023,0.585c-0.016,0.187-0.047,0.402-0.094,0.644c-0.047,0.242-0.109,0.538-0.187,0.889
				c-0.078,0.351-0.18,0.792-0.304,1.322c-0.031,0.109-0.094,0.383-0.187,0.819c-0.094,0.437-0.199,0.933-0.316,1.486
				c-0.117,0.554-0.23,1.116-0.339,1.685c-0.109,0.57-0.195,1.026-0.257,1.369c-0.266-0.031-0.535-0.047-0.808-0.047
				c-0.273,0-0.566,0-0.878,0c-0.406,0-0.737,0-0.995,0s-0.511,0.015-0.761,0.047c0.218-0.686,0.448-1.466,0.69-2.341
				c0.242-0.874,0.46-1.712,0.655-2.516c0.195-0.803,0.355-1.525,0.48-2.165c0.125-0.64,0.187-1.092,0.187-1.358
				c0-0.359-0.109-0.663-0.328-0.913c-0.219-0.249-0.546-0.374-0.983-0.374c-0.156,0-0.351,0.031-0.585,0.094
				c-0.234,0.063-0.484,0.199-0.749,0.41c-0.266,0.211-0.527,0.515-0.784,0.913c-0.257,0.398-0.488,0.94-0.69,1.627
				c-0.172,0.531-0.386,1.385-0.644,2.563c-0.258,1.178-0.519,2.532-0.784,4.061c-0.25-0.031-0.527-0.047-0.831-0.047
				c-0.304,0-0.636,0-0.995,0c-0.297,0-0.554,0-0.772,0c-0.219,0-0.468,0.015-0.749,0.047c0.187-0.609,0.398-1.349,0.632-2.223
				c0.234-0.874,0.453-1.728,0.655-2.563c0.203-0.834,0.374-1.587,0.515-2.259c0.14-0.671,0.211-1.131,0.211-1.381
				c0-0.406-0.113-0.706-0.339-0.901c-0.226-0.195-0.535-0.293-0.925-0.293c-0.655,0-1.225,0.254-1.708,0.761
				c-0.484,0.507-0.866,1.229-1.147,2.165c-0.047,0.14-0.117,0.39-0.211,0.749c-0.094,0.359-0.207,0.827-0.339,1.404
				c-0.133,0.577-0.277,1.252-0.433,2.025c-0.156,0.772-0.304,1.611-0.445,2.516c-0.266-0.031-0.538-0.047-0.819-0.047
				s-0.562,0-0.843,0c-0.297,0-0.581,0-0.854,0c-0.273,0-0.535,0.015-0.784,0.047c0.203-0.718,0.378-1.369,0.527-1.954
				c0.148-0.585,0.293-1.186,0.433-1.802c0.141-0.616,0.293-1.303,0.456-2.06c0.164-0.757,0.363-1.689,0.597-2.797
				c0.078-0.406,0.14-0.737,0.187-0.995c0.047-0.257,0.09-0.476,0.129-0.655c0.039-0.179,0.07-0.339,0.094-0.48
				c0.023-0.14,0.051-0.289,0.082-0.445C82.268,11.504,82.495,11.531,82.729,11.554z"/>
			<path fill="#6D8010" d="M108.966,20.998c-0.078,0.219-0.18,0.543-0.304,0.975c-0.5,0.352-1.053,0.583-1.662,0.69
				c-0.609,0.107-1.225,0.161-1.849,0.161c-0.905,0-1.693-0.137-2.364-0.41c-0.671-0.273-1.221-0.651-1.65-1.135
				c-0.429-0.484-0.749-1.042-0.96-1.674c-0.211-0.632-0.316-1.291-0.316-1.978c0-0.764,0.129-1.529,0.386-2.294
				c0.257-0.764,0.644-1.451,1.158-2.06c0.515-0.609,1.155-1.104,1.919-1.486c0.764-0.382,1.654-0.573,2.668-0.573
				c1.451,0,2.547,0.386,3.288,1.159c0.741,0.772,1.112,1.783,1.112,3.031c0,0.297-0.02,0.597-0.059,0.901
				c-0.039,0.304-0.082,0.605-0.129,0.901c-0.983-0.031-1.81-0.055-2.481-0.07c-0.671-0.015-1.264-0.023-1.779-0.023h-1.077
				c-0.203,0-0.445,0-0.725,0c-0.266,0-0.577,0.008-0.936,0.023c-0.031,0.188-0.055,0.392-0.07,0.612
				c-0.016,0.22-0.023,0.44-0.023,0.659c0,0.941,0.218,1.694,0.655,2.259c0.437,0.565,1.147,0.847,2.13,0.847
				c0.437,0,0.925-0.097,1.463-0.292c0.538-0.195,1.033-0.527,1.486-0.995l0.351,0.164C109.121,20.577,109.044,20.78,108.966,20.998
				z M107.21,12.806c-0.203-0.374-0.593-0.562-1.17-0.562c-0.39,0-0.73,0.109-1.018,0.328c-0.289,0.219-0.538,0.507-0.749,0.866
				c-0.211,0.359-0.386,0.769-0.527,1.229c-0.14,0.46-0.266,0.925-0.374,1.393c0.125,0.016,0.257,0.027,0.398,0.035
				c0.14,0.008,0.273,0.012,0.398,0.012h0.866h0.96c0.171,0,0.366-0.004,0.585-0.012c0.218-0.008,0.452-0.019,0.702-0.035
				c0.047-0.203,0.097-0.476,0.152-0.819c0.055-0.343,0.082-0.718,0.082-1.123C107.515,13.618,107.413,13.181,107.21,12.806z"/>
			<path fill="#6D8010" d="M111.716,15.72c0.273-0.866,0.655-1.634,1.147-2.305c0.492-0.671,1.073-1.209,1.744-1.615
				c0.671-0.406,1.404-0.609,2.2-0.609c0.702,0,1.357,0.149,1.966,0.445c0.609,0.297,1.092,0.741,1.451,1.334
				c0.406-1.701,0.721-3.191,0.948-4.47c0.226-1.279,0.425-2.434,0.597-3.464c0.249,0.031,0.523,0.059,0.819,0.082
				c0.296,0.023,0.608,0.035,0.936,0.035c0.328,0,0.609-0.012,0.843-0.035c0.234-0.023,0.46-0.05,0.679-0.082
				c-0.25,0.983-0.507,2.048-0.772,3.195c-0.265,1.147-0.527,2.309-0.784,3.487c-0.257,1.178-0.503,2.337-0.737,3.476
				c-0.234,1.139-0.445,2.2-0.632,3.183c-0.187,0.983-0.347,1.853-0.48,2.61c-0.133,0.757-0.222,1.315-0.269,1.673
				c-0.203-0.031-0.433-0.047-0.69-0.047c-0.258,0-0.535,0-0.831,0c-0.297,0-0.577,0-0.842,0c-0.266,0-0.507,0.015-0.726,0.047
				c0.078-0.218,0.152-0.468,0.222-0.749c0.07-0.281,0.136-0.562,0.199-0.843c-0.328,0.468-0.772,0.889-1.334,1.264
				c-0.562,0.374-1.225,0.562-1.989,0.562c-0.718,0-1.334-0.113-1.849-0.339c-0.515-0.226-0.936-0.546-1.264-0.96
				c-0.328-0.413-0.57-0.897-0.726-1.451c-0.156-0.554-0.234-1.135-0.234-1.744C111.306,17.48,111.443,16.586,111.716,15.72z
				 M114.688,19.898c0.07,0.266,0.176,0.503,0.316,0.714c0.141,0.211,0.316,0.378,0.527,0.503c0.211,0.125,0.456,0.187,0.737,0.187
				c0.686,0,1.244-0.249,1.673-0.749c0.429-0.499,0.772-1.096,1.03-1.79c0.257-0.694,0.433-1.404,0.527-2.13
				c0.094-0.725,0.14-1.322,0.14-1.79c0-0.577-0.152-1.088-0.456-1.533c-0.304-0.445-0.776-0.667-1.416-0.667
				c-0.39,0-0.741,0.121-1.053,0.363c-0.312,0.242-0.585,0.554-0.819,0.936c-0.234,0.382-0.433,0.812-0.597,1.287
				c-0.164,0.476-0.301,0.952-0.41,1.428c-0.109,0.476-0.187,0.925-0.234,1.346c-0.047,0.421-0.07,0.772-0.07,1.053
				C114.583,19.352,114.618,19.633,114.688,19.898z"/>
		</g>
	</g>
</g>
</svg>
